<svg xmlns="http://www.w3.org/2000/svg" width="44" height="44" viewBox="0 0 44 44">
  <path id="Icon_ionic-logo-facebook" data-name="Icon ionic-logo-facebook" d="M46.071,4.5H6.929A2.43,2.43,0,0,0,4.5,6.929V46.071A2.43,2.43,0,0,0,6.929,48.5H26.5V31.083H21.241V24.667H26.5V19.923c0-5.683,3.942-8.777,9.018-8.777,2.429,0,5.042.183,5.649.264v5.935H37.122c-2.761,0-3.289,1.306-3.289,3.231v4.091H40.41l-.859,6.417H33.833V48.5H46.071A2.43,2.43,0,0,0,48.5,46.071V6.929A2.43,2.43,0,0,0,46.071,4.5Z" transform="translate(-4.5 -4.5)"/>
</svg>
