<svg xmlns="http://www.w3.org/2000/svg" width="47" height="47" viewBox="0 0 47 47">
  <g id="Icon_feather-instagram" data-name="Icon feather-instagram" transform="translate(-1.5 -1.5)">
    <path id="Path_1" data-name="Path 1" d="M14,3H36A11,11,0,0,1,47,14V36A11,11,0,0,1,36,47H14A11,11,0,0,1,3,36V14A11,11,0,0,1,14,3Z" fill="none" stroke="#000" stroke-linecap="round" stroke-linejoin="round" stroke-width="3"/>
    <path id="Path_2" data-name="Path 2" d="M24,17.055A6,6,0,1,1,18.945,12,6,6,0,0,1,24,17.055Z" transform="translate(7.051 6.949)" fill="none" stroke="#000" stroke-linecap="round" stroke-linejoin="round" stroke-width="3"/>
    <path id="Path_3" data-name="Path 3" d="M26.25,9.75h0" transform="translate(10.85 3.15)" fill="none" stroke="#000" stroke-linecap="round" stroke-linejoin="round" stroke-width="3"/>
  </g>
</svg>
